<svg xmlns="http://www.w3.org/2000/svg" width="980" height="720" viewBox="0 0 980 720" role="img" aria-labelledby="title desc">
  <title id="title">Australian solar PV warning label kit mockup</title>
  <desc id="desc">A professional sheet of solar warning labels for Australian PV installations.</desc>
  <defs>
    <filter id="shadow" x="-20%" y="-20%" width="140%" height="140%">
      <feDropShadow dx="0" dy="16" stdDeviation="18" flood-color="#0f172a" flood-opacity="0.16"/>
    </filter>
    <linearGradient id="table" x1="0" x2="1" y1="0" y2="1">
      <stop stop-color="#f8fafc"/>
      <stop offset="1" stop-color="#dbeafe"/>
    </linearGradient>
  </defs>
  <rect width="980" height="720" fill="url(#table)"/>
  <g transform="translate(120 78)" filter="url(#shadow)">
    <rect x="0" y="0" width="740" height="548" rx="22" fill="#ffffff"/>
    <rect x="34" y="34" width="672" height="54" rx="8" fill="#111827"/>
    <text x="56" y="69" font-family="Arial, Helvetica, sans-serif" font-size="22" font-weight="700" fill="#ffffff">SAA-ALIGNED SOLAR PV LABEL KIT</text>
    <text x="510" y="69" font-family="Arial, Helvetica, sans-serif" font-size="15" font-weight="700" fill="#facc15">AUSTRALIA</text>
    <g font-family="Arial, Helvetica, sans-serif" font-weight="700">
      <rect x="34" y="124" width="308" height="78" rx="7" fill="#fef3c7" stroke="#111827" stroke-width="3"/>
      <path d="M58 162l20-34 20 34z" fill="#facc15" stroke="#111827" stroke-width="3"/>
      <text x="116" y="154" font-size="18" fill="#111827">WARNING</text>
      <text x="116" y="177" font-size="15" fill="#111827">HAZARDOUS D.C. VOLTAGE</text>
      <rect x="376" y="124" width="330" height="78" rx="7" fill="#ef4444"/>
      <text x="398" y="154" font-size="17" fill="#fff">SOLAR ARRAY ON ROOF</text>
      <text x="398" y="178" font-size="14" fill="#fff">PV SYSTEM INSTALLED</text>
      <rect x="34" y="228" width="214" height="54" rx="7" fill="#16a34a"/>
      <text x="68" y="263" font-size="24" fill="#fff">PV</text>
      <text x="116" y="261" font-size="14" fill="#fff">DISCONNECTION POINT</text>
      <rect x="264" y="228" width="208" height="54" rx="7" fill="#ffffff" stroke="#111827" stroke-width="3"/>
      <text x="284" y="260" font-size="15" fill="#111827">MAIN SWITCH (GRID)</text>
      <rect x="490" y="228" width="216" height="54" rx="7" fill="#ffffff" stroke="#111827" stroke-width="3"/>
      <text x="510" y="260" font-size="15" fill="#111827">MAIN SWITCH (INVERTER)</text>
      <rect x="34" y="308" width="322" height="62" rx="7" fill="#fef3c7" stroke="#111827" stroke-width="3"/>
      <text x="58" y="333" font-size="14" fill="#111827">WARNING: MULTIPLE D.C. SOURCES</text>
      <text x="58" y="355" font-size="13" fill="#111827">TURN OFF ALL D.C. ISOLATORS</text>
      <rect x="384" y="308" width="322" height="62" rx="7" fill="#fef3c7" stroke="#111827" stroke-width="3"/>
      <text x="408" y="333" font-size="14" fill="#111827">WARNING: LOADS MUST BE ISOLATED</text>
      <text x="408" y="355" font-size="13" fill="#111827">TEST ABSENCE OF CURRENT</text>
      <rect x="34" y="396" width="214" height="50" rx="7" fill="#111827"/>
      <text x="54" y="427" font-size="14" fill="#ffffff">PV ARRAY D.C. ISOLATOR</text>
      <rect x="264" y="396" width="208" height="50" rx="7" fill="#111827"/>
      <text x="286" y="427" font-size="14" fill="#ffffff">INVERTER A.C. ISOLATOR</text>
      <rect x="490" y="396" width="216" height="50" rx="7" fill="#111827"/>
      <text x="512" y="427" font-size="14" fill="#ffffff">BATTERY SYSTEM</text>
      <rect x="34" y="472" width="672" height="38" rx="7" fill="#e5e7eb"/>
      <text x="56" y="497" font-size="14" fill="#111827">AS/NZS 5033:2021 | AS/NZS 4777.1:2024 | AS/NZS 5139:2019 | AS/NZS 3000:2018</text>
    </g>
  </g>
</svg>
